<mxfile host="65bd71144e">
    <diagram id="bsIvukYz2FXJ3n10kUxY" name="V1">
        <mxGraphModel dx="1125" dy="826" grid="1" gridSize="10" guides="1" tooltips="1" connect="1" arrows="1" fold="1" page="1" pageScale="1" pageWidth="1100" pageHeight="1700" math="0" shadow="0">
            <root>
                <mxCell id="0"/>
                <mxCell id="1" parent="0"/>
                <mxCell id="39" style="edgeStyle=none;html=1;exitX=0.5;exitY=0.5;exitDx=0;exitDy=0;exitPerimeter=0;endArrow=classic;endFill=1;entryX=0.5;entryY=0.5;entryDx=0;entryDy=0;entryPerimeter=0;" parent="1" source="2" target="35" edge="1">
                    <mxGeometry relative="1" as="geometry">
                        <mxPoint x="625" y="280" as="targetPoint"/>
                    </mxGeometry>
                </mxCell>
                <mxCell id="2" value="IT Admin" style="shape=umlActor;verticalLabelPosition=bottom;verticalAlign=top;html=1;" parent="1" vertex="1">
                    <mxGeometry x="755" y="330" width="30" height="60" as="geometry"/>
                </mxCell>
                <mxCell id="15" value="" style="edgeStyle=none;html=1;endArrow=none;endFill=0;" parent="1" source="5" target="7" edge="1">
                    <mxGeometry relative="1" as="geometry"/>
                </mxCell>
                <mxCell id="5" value="Customer" style="shape=umlActor;verticalLabelPosition=bottom;verticalAlign=top;html=1;" parent="1" vertex="1">
                    <mxGeometry x="455" y="200" width="30" height="60" as="geometry"/>
                </mxCell>
                <mxCell id="17" value="" style="edgeStyle=none;html=1;endArrow=none;endFill=0;" parent="1" source="6" target="7" edge="1">
                    <mxGeometry relative="1" as="geometry"/>
                </mxCell>
                <mxCell id="6" value="Manager&lt;br&gt;" style="shape=umlActor;verticalLabelPosition=bottom;verticalAlign=top;html=1;" parent="1" vertex="1">
                    <mxGeometry x="315" y="240" width="30" height="60" as="geometry"/>
                </mxCell>
                <mxCell id="7" value="EzElectronics" style="ellipse;" parent="1" vertex="1">
                    <mxGeometry x="430" y="370" width="90" height="50" as="geometry"/>
                </mxCell>
                <mxCell id="38" style="edgeStyle=none;html=1;exitX=0.5;exitY=0.5;exitDx=0;exitDy=0;exitPerimeter=0;endArrow=classic;endFill=1;" parent="1" source="20" target="35" edge="1">
                    <mxGeometry relative="1" as="geometry"/>
                </mxCell>
                <mxCell id="20" value="DB Admin" style="shape=umlActor;verticalLabelPosition=bottom;verticalAlign=top;html=1;" parent="1" vertex="1">
                    <mxGeometry x="735" y="180" width="30" height="60" as="geometry"/>
                </mxCell>
                <mxCell id="41" style="edgeStyle=none;html=1;exitX=0.5;exitY=0.5;exitDx=0;exitDy=0;exitPerimeter=0;endArrow=classic;endFill=1;entryX=0.5;entryY=0.628;entryDx=0;entryDy=0;entryPerimeter=0;" parent="1" source="21" target="35" edge="1">
                    <mxGeometry relative="1" as="geometry">
                        <mxPoint x="625" y="330" as="targetPoint"/>
                    </mxGeometry>
                </mxCell>
                <mxCell id="21" value="Security Manager" style="shape=umlActor;verticalLabelPosition=bottom;verticalAlign=top;html=1;" parent="1" vertex="1">
                    <mxGeometry x="645" y="460" width="30" height="60" as="geometry"/>
                </mxCell>
                <mxCell id="36" style="edgeStyle=none;html=1;exitX=0.5;exitY=0.5;exitDx=0;exitDy=0;exitPerimeter=0;entryX=0.956;entryY=0.207;entryDx=0;entryDy=0;entryPerimeter=0;endArrow=none;endFill=0;" parent="1" source="35" target="7" edge="1">
                    <mxGeometry relative="1" as="geometry"/>
                </mxCell>
                <mxCell id="35" value="Admin&lt;br&gt;" style="shape=umlActor;verticalLabelPosition=bottom;verticalAlign=top;html=1;" parent="1" vertex="1">
                    <mxGeometry x="555" y="270" width="30" height="60" as="geometry"/>
                </mxCell>
            </root>
        </mxGraphModel>
    </diagram>
    <diagram id="KzLeuMqAXfLyb1YyPd7s" name="V2">
        <mxGraphModel dx="1125" dy="826" grid="1" gridSize="10" guides="1" tooltips="1" connect="1" arrows="1" fold="1" page="1" pageScale="1" pageWidth="1100" pageHeight="1700" math="0" shadow="0">
            <root>
                <mxCell id="0"/>
                <mxCell id="1" parent="0"/>
                <mxCell id="9v0eIhoD9KH5Ja_uHB0N-1" style="edgeStyle=none;html=1;exitX=0.5;exitY=0.5;exitDx=0;exitDy=0;exitPerimeter=0;endArrow=classic;endFill=1;entryX=0.5;entryY=0.5;entryDx=0;entryDy=0;entryPerimeter=0;" parent="1" source="9v0eIhoD9KH5Ja_uHB0N-2" target="9v0eIhoD9KH5Ja_uHB0N-13" edge="1">
                    <mxGeometry relative="1" as="geometry">
                        <mxPoint x="625" y="280" as="targetPoint"/>
                    </mxGeometry>
                </mxCell>
                <mxCell id="9v0eIhoD9KH5Ja_uHB0N-2" value="IT Admin" style="shape=umlActor;verticalLabelPosition=bottom;verticalAlign=top;html=1;" parent="1" vertex="1">
                    <mxGeometry x="755" y="330" width="30" height="60" as="geometry"/>
                </mxCell>
                <mxCell id="9v0eIhoD9KH5Ja_uHB0N-3" value="" style="edgeStyle=none;html=1;endArrow=none;endFill=0;" parent="1" source="9v0eIhoD9KH5Ja_uHB0N-4" target="9v0eIhoD9KH5Ja_uHB0N-7" edge="1">
                    <mxGeometry relative="1" as="geometry"/>
                </mxCell>
                <mxCell id="9v0eIhoD9KH5Ja_uHB0N-4" value="Customer" style="shape=umlActor;verticalLabelPosition=bottom;verticalAlign=top;html=1;" parent="1" vertex="1">
                    <mxGeometry x="455" y="200" width="30" height="60" as="geometry"/>
                </mxCell>
                <mxCell id="9v0eIhoD9KH5Ja_uHB0N-5" value="" style="edgeStyle=none;html=1;endArrow=none;endFill=0;" parent="1" source="9v0eIhoD9KH5Ja_uHB0N-6" target="9v0eIhoD9KH5Ja_uHB0N-7" edge="1">
                    <mxGeometry relative="1" as="geometry"/>
                </mxCell>
                <mxCell id="9v0eIhoD9KH5Ja_uHB0N-6" value="Manager&lt;br&gt;" style="shape=umlActor;verticalLabelPosition=bottom;verticalAlign=top;html=1;" parent="1" vertex="1">
                    <mxGeometry x="315" y="240" width="30" height="60" as="geometry"/>
                </mxCell>
                <mxCell id="9v0eIhoD9KH5Ja_uHB0N-7" value="EzElectronics" style="ellipse;" parent="1" vertex="1">
                    <mxGeometry x="430" y="370" width="90" height="50" as="geometry"/>
                </mxCell>
                <mxCell id="9v0eIhoD9KH5Ja_uHB0N-8" style="edgeStyle=none;html=1;exitX=0.5;exitY=0.5;exitDx=0;exitDy=0;exitPerimeter=0;endArrow=classic;endFill=1;entryX=0.485;entryY=0.576;entryDx=0;entryDy=0;entryPerimeter=0;" parent="1" source="9v0eIhoD9KH5Ja_uHB0N-9" target="9v0eIhoD9KH5Ja_uHB0N-13" edge="1">
                    <mxGeometry relative="1" as="geometry"/>
                </mxCell>
                <mxCell id="9v0eIhoD9KH5Ja_uHB0N-9" value="DB Admin" style="shape=umlActor;verticalLabelPosition=bottom;verticalAlign=top;html=1;" parent="1" vertex="1">
                    <mxGeometry x="735" y="180" width="30" height="60" as="geometry"/>
                </mxCell>
                <mxCell id="9v0eIhoD9KH5Ja_uHB0N-10" style="edgeStyle=none;html=1;exitX=0.5;exitY=0.5;exitDx=0;exitDy=0;exitPerimeter=0;endArrow=classic;endFill=1;entryX=0.5;entryY=0.5;entryDx=0;entryDy=0;entryPerimeter=0;" parent="1" source="9v0eIhoD9KH5Ja_uHB0N-11" target="9v0eIhoD9KH5Ja_uHB0N-13" edge="1">
                    <mxGeometry relative="1" as="geometry">
                        <mxPoint x="610" y="370" as="targetPoint"/>
                    </mxGeometry>
                </mxCell>
                <mxCell id="9v0eIhoD9KH5Ja_uHB0N-11" value="Security Manager" style="shape=umlActor;verticalLabelPosition=bottom;verticalAlign=top;html=1;" parent="1" vertex="1">
                    <mxGeometry x="645" y="460" width="30" height="60" as="geometry"/>
                </mxCell>
                <mxCell id="9v0eIhoD9KH5Ja_uHB0N-12" style="edgeStyle=none;html=1;exitX=0.5;exitY=0.5;exitDx=0;exitDy=0;exitPerimeter=0;entryX=0.956;entryY=0.207;entryDx=0;entryDy=0;entryPerimeter=0;endArrow=none;endFill=0;" parent="1" source="9v0eIhoD9KH5Ja_uHB0N-13" target="9v0eIhoD9KH5Ja_uHB0N-7" edge="1">
                    <mxGeometry relative="1" as="geometry"/>
                </mxCell>
                <mxCell id="9v0eIhoD9KH5Ja_uHB0N-13" value="Admin&lt;br&gt;" style="shape=umlActor;verticalLabelPosition=bottom;verticalAlign=top;html=1;" parent="1" vertex="1">
                    <mxGeometry x="555" y="280" width="30" height="60" as="geometry"/>
                </mxCell>
                <mxCell id="9v0eIhoD9KH5Ja_uHB0N-17" style="edgeStyle=none;html=1;exitX=0.5;exitY=0.5;exitDx=0;exitDy=0;exitPerimeter=0;entryX=0.5;entryY=0.5;entryDx=0;entryDy=0;entryPerimeter=0;" parent="1" source="9v0eIhoD9KH5Ja_uHB0N-14" target="9v0eIhoD9KH5Ja_uHB0N-13" edge="1">
                    <mxGeometry relative="1" as="geometry"/>
                </mxCell>
                <mxCell id="9v0eIhoD9KH5Ja_uHB0N-14" value="Business Admin" style="shape=umlActor;verticalLabelPosition=bottom;verticalAlign=top;html=1;outlineConnect=0;" parent="1" vertex="1">
                    <mxGeometry x="555" y="120" width="30" height="60" as="geometry"/>
                </mxCell>
                <mxCell id="9v0eIhoD9KH5Ja_uHB0N-16" style="edgeStyle=none;html=1;exitX=0.5;exitY=0.5;exitDx=0;exitDy=0;exitPerimeter=0;entryX=0.5;entryY=0.5;entryDx=0;entryDy=0;entryPerimeter=0;" parent="1" source="9v0eIhoD9KH5Ja_uHB0N-15" target="9v0eIhoD9KH5Ja_uHB0N-13" edge="1">
                    <mxGeometry relative="1" as="geometry"/>
                </mxCell>
                <mxCell id="9v0eIhoD9KH5Ja_uHB0N-15" value="Community Moderator" style="shape=umlActor;verticalLabelPosition=bottom;verticalAlign=top;html=1;outlineConnect=0;" parent="1" vertex="1">
                    <mxGeometry x="525" y="480" width="30" height="60" as="geometry"/>
                </mxCell>
                <mxCell id="9v0eIhoD9KH5Ja_uHB0N-21" style="edgeStyle=none;html=1;exitX=0.5;exitY=0.5;exitDx=0;exitDy=0;exitPerimeter=0;entryX=0;entryY=0.5;entryDx=0;entryDy=0;endArrow=none;endFill=0;" parent="1" source="9v0eIhoD9KH5Ja_uHB0N-18" target="9v0eIhoD9KH5Ja_uHB0N-7" edge="1">
                    <mxGeometry relative="1" as="geometry"/>
                </mxCell>
                <mxCell id="9v0eIhoD9KH5Ja_uHB0N-18" value="Payment Service" style="shape=umlActor;verticalLabelPosition=bottom;verticalAlign=top;html=1;outlineConnect=0;" parent="1" vertex="1">
                    <mxGeometry x="285" y="380" width="30" height="60" as="geometry"/>
                </mxCell>
                <mxCell id="9v0eIhoD9KH5Ja_uHB0N-20" style="edgeStyle=none;html=1;exitX=0.5;exitY=0.5;exitDx=0;exitDy=0;exitPerimeter=0;entryX=0.5;entryY=1;entryDx=0;entryDy=0;endArrow=none;endFill=0;" parent="1" source="9v0eIhoD9KH5Ja_uHB0N-19" target="9v0eIhoD9KH5Ja_uHB0N-7" edge="1">
                    <mxGeometry relative="1" as="geometry"/>
                </mxCell>
                <mxCell id="9v0eIhoD9KH5Ja_uHB0N-19" value="Competitors" style="shape=umlActor;verticalLabelPosition=bottom;verticalAlign=top;html=1;outlineConnect=0;" parent="1" vertex="1">
                    <mxGeometry x="370" y="510" width="30" height="60" as="geometry"/>
                </mxCell>
                <mxCell id="9v0eIhoD9KH5Ja_uHB0N-24" style="edgeStyle=none;html=1;exitX=0.5;exitY=0.5;exitDx=0;exitDy=0;exitPerimeter=0;entryX=0.5;entryY=0.5;entryDx=0;entryDy=0;entryPerimeter=0;endArrow=classic;endFill=1;" parent="1" source="9v0eIhoD9KH5Ja_uHB0N-22" target="9v0eIhoD9KH5Ja_uHB0N-18" edge="1">
                    <mxGeometry relative="1" as="geometry"/>
                </mxCell>
                <mxCell id="9v0eIhoD9KH5Ja_uHB0N-22" value="Google Pay" style="shape=umlActor;verticalLabelPosition=bottom;verticalAlign=top;html=1;outlineConnect=0;" parent="1" vertex="1">
                    <mxGeometry x="230" y="490" width="30" height="60" as="geometry"/>
                </mxCell>
                <mxCell id="9v0eIhoD9KH5Ja_uHB0N-25" style="edgeStyle=none;html=1;exitX=0.5;exitY=0.5;exitDx=0;exitDy=0;exitPerimeter=0;entryX=0.5;entryY=0.5;entryDx=0;entryDy=0;entryPerimeter=0;endArrow=classic;endFill=1;" parent="1" source="9v0eIhoD9KH5Ja_uHB0N-23" target="9v0eIhoD9KH5Ja_uHB0N-18" edge="1">
                    <mxGeometry relative="1" as="geometry"/>
                </mxCell>
                <mxCell id="9v0eIhoD9KH5Ja_uHB0N-23" value="Visa" style="shape=umlActor;verticalLabelPosition=bottom;verticalAlign=top;html=1;outlineConnect=0;" parent="1" vertex="1">
                    <mxGeometry x="230" y="330" width="30" height="60" as="geometry"/>
                </mxCell>
                <mxCell id="NV-MHIkqmI8b8DgTCwIw-1" value="" style="edgeStyle=none;html=1;endArrow=none;endFill=0;entryX=0.411;entryY=0.02;entryDx=0;entryDy=0;entryPerimeter=0;" parent="1" source="NV-MHIkqmI8b8DgTCwIw-2" target="9v0eIhoD9KH5Ja_uHB0N-7" edge="1">
                    <mxGeometry relative="1" as="geometry">
                        <mxPoint x="455" y="271" as="targetPoint"/>
                    </mxGeometry>
                </mxCell>
                <mxCell id="NV-MHIkqmI8b8DgTCwIw-2" value="Visitor" style="shape=umlActor;verticalLabelPosition=bottom;verticalAlign=top;html=1;" parent="1" vertex="1">
                    <mxGeometry x="339.37" y="90" width="30" height="60" as="geometry"/>
                </mxCell>
            </root>
        </mxGraphModel>
    </diagram>
</mxfile>
